<svg width="48" height="60" viewBox="0 0 48 60" fill="none" xmlns="http://www.w3.org/2000/svg">
<path d="M59.267 34.9755L50.6174 26.1496C49.7146 25.2286 48.2325 25.2101 47.3068 26.1084C46.3813 27.0067 46.3626 28.4816 47.2654 29.4027L52.0378 34.2724H40.5413L30.9221 23.8787L40.5412 13.485H52.0377L47.2653 18.3548C46.3626 19.2759 46.3812 20.7508 47.3067 21.6491C48.2328 22.5478 49.715 22.5285 50.6173 21.6079L59.2669 12.7819C60.1546 11.8769 60.1495 10.4298 59.2669 9.52885L50.6173 0.703048C49.7145 -0.217971 48.2324 -0.236492 47.3067 0.661814C46.3812 1.56012 46.3624 3.03501 47.2653 3.95614L52.0376 8.82577H39.5145C38.8602 8.82577 38.2357 9.09834 37.7925 9.57719L27.7394 20.4398L17.5546 9.43474C17.1113 8.95588 16.4868 8.68331 15.8325 8.68331H2.34105C1.04809 8.68331 0 9.72629 0 11.0129C0 12.2996 1.04809 13.3426 2.34105 13.3426H14.8057L24.5568 23.8787L14.8058 34.4148H2.34105C1.04809 34.4148 0 35.4578 0 36.7444C0 38.0311 1.04809 39.074 2.34105 39.074H15.8325C16.4868 39.074 17.1113 38.8015 17.5546 38.3226L27.7394 27.3176L37.7925 38.1802C38.2357 38.659 38.8602 38.9316 39.5145 38.9316H52.0377L47.2654 43.8012C46.3627 44.7224 46.3813 46.1972 47.3068 47.0955C48.2328 47.9941 49.7151 47.975 50.6174 47.0543L59.267 38.2285C60.166 37.3107 60.1326 35.8581 59.267 34.9755Z" transform="translate(47.7573) rotate(90)" fill="url(#paint0_linear)"/>
<defs>
<linearGradient id="paint0_linear" x2="1" gradientUnits="userSpaceOnUse" gradientTransform="translate(0 53.6979) scale(59.9308 -59.6385)">
<stop stop-color="#F2994A"/>
<stop offset="1" stop-color="#F2C94C"/>
</linearGradient>
</defs>
</svg>
