<svg width="55" height="55" viewBox="0 0 55 55" fill="none" xmlns="http://www.w3.org/2000/svg">
<path d="M41.4648 52.8516C41.4648 54.0381 40.503 55 39.3164 55H2.14844C0.961856 55 0 54.0381 0 52.8516V2.14844C0 0.961856 0.961856 0 2.14844 0C3.33502 0 4.29688 0.961856 4.29688 2.14844V25.3516H37.168V15.6836C37.168 14.497 38.1298 13.5352 39.3164 13.5352C40.503 13.5352 41.4648 14.497 41.4648 15.6836V27.5C41.4648 28.6866 40.503 29.6484 39.3164 29.6484H4.29688V50.7031H39.3164C40.503 50.7031 41.4648 51.665 41.4648 52.8516ZM52.8516 0H15.6836C14.497 0 13.5352 0.961856 13.5352 2.14844V15.6836C13.5352 16.8702 14.497 17.832 15.6836 17.832C16.8702 17.832 17.832 16.8702 17.832 15.6836V4.29688H50.7031V37.168H20.7324C19.5458 37.168 18.584 38.1298 18.584 39.3164C18.584 40.503 19.5458 41.4648 20.7324 41.4648H50.7031V52.8516C50.7031 54.0381 51.665 55 52.8516 55C54.0381 55 55 54.0381 55 52.8516V2.14844C55 0.961856 54.0381 0 52.8516 0Z" fill="url(#paint0_linear)"/>
<defs>
<linearGradient id="paint0_linear" x2="1" gradientUnits="userSpaceOnUse" gradientTransform="translate(0 55) scale(55 -55)">
<stop stop-color="#F2C94C"/>
<stop offset="1" stop-color="#F2994A"/>
</linearGradient>
</defs>
</svg>
