<?xml version="1.0" encoding="UTF-8" standalone="no"?>
<svg
   xmlns:dc="http://purl.org/dc/elements/1.1/"
   xmlns:cc="http://creativecommons.org/ns#"
   xmlns:rdf="http://www.w3.org/1999/02/22-rdf-syntax-ns#"
   xmlns:svg="http://www.w3.org/2000/svg"
   xmlns="http://www.w3.org/2000/svg"
   xmlns:sodipodi="http://sodipodi.sourceforge.net/DTD/sodipodi-0.dtd"
   xmlns:inkscape="http://www.inkscape.org/namespaces/inkscape"
   width="1290.996"
   height="1210.037"
   viewBox="0 0 1290.996 1210.037"
   id="svg2"
   version="1.1"
   inkscape:version="0.91 r13725"
   sodipodi:docname="e.svg"
   style="fill:none">
  <metadata
     id="metadata17">
    <rdf:RDF>
      <cc:Work
         rdf:about="">
        <dc:format>image/svg+xml</dc:format>
        <dc:type
           rdf:resource="http://purl.org/dc/dcmitype/StillImage" />
        <dc:title></dc:title>
      </cc:Work>
    </rdf:RDF>
  </metadata>
  <defs
     id="defs15" />
  <sodipodi:namedview
     pagecolor="#ffffff"
     bordercolor="#666666"
     borderopacity="1"
     objecttolerance="10"
     gridtolerance="10"
     guidetolerance="10"
     inkscape:pageopacity="0"
     inkscape:pageshadow="2"
     inkscape:window-width="1280"
     inkscape:window-height="961"
     id="namedview13"
     showgrid="false"
     inkscape:snap-page="false"
     inkscape:snap-grids="true"
     inkscape:snap-global="false"
     borderlayer="true"
     inkscape:zoom="0.37083822"
     inkscape:cx="546.28916"
     inkscape:cy="425.25756"
     inkscape:window-x="-8"
     inkscape:window-y="-8"
     inkscape:window-maximized="1"
     inkscape:current-layer="g3345" />
  <mask
     id="mask0"
     mask-type="alpha"
     maskUnits="userSpaceOnUse"
     x="-697"
     y="-814"
     width="1739"
     height="1714">
    <path
       d="m 0,0 1410.96,0 0,1306.75 L 0,1306.75 0,0 Z"
       transform="matrix(-0.775832,-0.484794,-0.491983,0.787337,1041.21,-129.472)"
       id="path7"
       inkscape:connector-curvature="0"
       style="clip-rule:evenodd;fill:#ffffff;fill-rule:evenodd" />
  </mask>
  <g
     id="g3345"
     transform="translate(249.44242,620.43703)">
    <g
       id="g4150"
       transform="translate(0,-310.037)">
      <path
         d="m 480.52463,-189.73855 0.11371,-0.0335 0.1168,0.022 c 54.90304,10.47165 106.94725,30.90644 154.68885,60.73872 113.41189,70.867672 189.19944,187.514285 207.93108,320.02987 l -0.97058,0.14452 C 831.49739,121.957 791.17318,60.97589 731.77005,23.856668 677.04907,-10.336822 612.28418,-21.173093 549.40782,-6.6550647 486.53019,7.8632661 433.06749,45.99766 398.87073,100.72388 c -34.1938,54.7215 -45.02934,119.48575 -30.51364,182.36265 14.51541,62.87562 52.64743,116.3351 107.36764,150.52811 54.72641,34.19688 119.49454,45.0366 182.37303,30.52208 62.87855,-14.51446 116.33706,-52.64491 150.53136,-107.36719 27.85361,-44.57508 40.27058,-95.75263 35.90837,-147.99783 l 0.97743,-0.0899 c 4.97225,48.81005 2.01748,97.7158 -8.78397,145.35847 -11.17167,49.28118 -30.53839,96.19595 -57.56154,139.44201 -46.94109,75.1214 -114.17149,134.29017 -194.4229,171.10812 l -0.10724,0.049 -0.11866,-0.005 C 509.69242,661.37897 436.40237,638.57662 372.57312,598.69165 322.63514,567.48691 280.30197,527.43177 246.74742,479.63959 214.33993,433.47829 191.4442,382.0787 178.69873,326.87216 165.95248,271.66514 163.99969,215.432 172.89164,159.73416 182.09939,102.07042 202.58962,47.511231 233.79463,-2.4271931 290.43466,-93.070153 378.05893,-159.59197 480.52463,-189.73855"
         id="path4"
         inkscape:connector-curvature="0"
         style="clip-rule:evenodd;fill:#f8af3d;fill-rule:evenodd" />
      <g
         mask="url(#mask0)"
         id="g9"
         transform="translate(203.07203,244.0678)">
        <path
           d="m 1381.12,410.927 c -7.84,-25.736 -17.4,-51.441 -28.41,-76.403 -0.94,-2.118 -1.89,-4.255 -2.84,-6.376 -8.23,-18.09 -17.32,-36.008 -27.03,-53.255 l -0.13,-0.238 -0.27,-0.031 c -1.57,-0.176 -3.06,-0.261 -4.57,-0.261 -16.18,0 -30.71,9.368 -37.19,23.914 l -0.04,-0.018 -0.22,0.508 c -4.23,9.679 -6.67,19.754 -7.84,24.594 -24.43,100.686 -39.11,197.943 -39.25,198.913 -0.2,1.275 -19.61,128.6 -58.05,227.408 -2.62,6.749 -5.43,13.622 -5.46,13.691 -16.6,40.622 -24.93,61.012 -41.07,88.317 -29.8,50.432 -116.31,173.14 -275.574,223.21 -58.345,18.35 -112.515,22.2 -147.686,22.2 -166.263,0 -320.206,-81.81 -411.798,-218.844 -52.949,-79.264 -80.937,-171.484 -80.937,-266.69 0,-54.808 9.203,-108.599 27.353,-159.88 17.546,-49.574 43.08,-95.832 75.897,-137.498 3.639,-4.818 7.667,-9.739 11.947,-14.6 0.053,-0.052 0.096,-0.107 0.138,-0.165 l -0.437,-0.307 0.535,0.201 C 422.105,189.202 559.627,126.049 705.49,126.049 c 61.403,0 121.354,11.014 178.19,32.74 l 2.067,0.791 -1.472,-1.634 C 839.948,108.774 786.83,69.9797 726.399,42.6391 663.861,14.3452 596.992,0 527.65,0 388.268,0 256.259,59.8602 165.466,164.234 c -5.749,6.705 -11.592,13.836 -17.86,21.801 C 100.692,245.653 64.1861,311.845 39.1035,382.775 13.1557,456.151 0,533.128 0,611.566 0,705.41 18.6537,796.45 55.4435,882.155 c 35.534,82.782 86.4035,157.125 151.1955,220.975 64.793,63.84 140.241,113.97 224.25,148.99 86.977,36.25 179.366,54.63 274.601,54.63 62.038,0 123.59,-7.94 182.946,-23.6 57.577,-15.2 113.104,-37.65 165.054,-66.73 102.34,-57.3 189.33,-139.69 251.55,-238.274 9.36,-14.918 17.54,-28.993 25.02,-43.026 49.66,-92.857 76.73,-193.433 80.47,-298.934 0.29,-7.913 0.43,-15.966 0.43,-24.62 0,-68.29 -10.04,-135.795 -29.84,-200.639"
           transform="matrix(-0.775832,-0.484794,-0.491983,0.787337,1041.21,-129.472)"
           id="path11"
           inkscape:connector-curvature="0"
           style="clip-rule:evenodd;fill:#fbc24a;fill-rule:evenodd" />
      </g>
    </g>
  </g>
</svg>
