<svg width="31" height="30" viewBox="0 0 31 30" fill="none" xmlns="http://www.w3.org/2000/svg">
<path d="M28.6896 7.65801C27.3147 5.30216 25.4496 3.43702 23.094 2.06218C20.738 0.687277 18.1659 -1.60499e-08 15.376 -1.60499e-08C12.5864 -1.60499e-08 10.0135 0.687488 7.65801 2.06218C5.30216 3.43695 3.43716 5.30216 2.06218 7.65801C0.687418 10.0138 0 12.5863 0 15.3756C0 18.726 0.977517 21.7389 2.93304 24.4149C4.88836 27.091 7.41434 28.9429 10.5108 29.9705C10.8712 30.0374 11.138 29.9904 11.3115 29.8305C11.4851 29.6705 11.5717 29.4701 11.5717 29.2302C11.5717 29.1901 11.5683 28.8299 11.5616 28.1491C11.5548 27.4682 11.5515 26.8743 11.5515 26.3675L11.091 26.4472C10.7974 26.501 10.427 26.5238 9.97986 26.5173C9.5329 26.5111 9.06889 26.4642 8.58848 26.3771C8.10785 26.2908 7.66082 26.0906 7.24702 25.7769C6.83344 25.4633 6.53983 25.0527 6.36627 24.5459L6.16607 24.0851C6.03263 23.7784 5.82254 23.4377 5.53553 23.0642C5.24851 22.6904 4.95827 22.437 4.66467 22.3035L4.52449 22.2032C4.43109 22.1365 4.34441 22.0561 4.26426 21.9627C4.18418 21.8694 4.12423 21.776 4.08419 21.6824C4.04408 21.5888 4.07731 21.512 4.18425 21.4518C4.29119 21.3916 4.48445 21.3623 4.76487 21.3623L5.16513 21.4221C5.43209 21.4757 5.7623 21.6355 6.15619 21.9026C6.54986 22.1695 6.87348 22.5164 7.12711 22.9433C7.43425 23.4907 7.80429 23.9078 8.23828 24.1948C8.67193 24.4818 9.10914 24.6251 9.54952 24.6251C9.98989 24.6251 10.3702 24.5917 10.6907 24.5253C11.0108 24.4586 11.3112 24.3582 11.5916 24.2248C11.7117 23.3302 12.0388 22.6429 12.5725 22.1625C11.8118 22.0826 11.1278 21.9622 10.5204 21.8021C9.91325 21.6418 9.28585 21.3816 8.63862 21.0209C7.99103 20.6607 7.45382 20.2134 7.02684 19.6797C6.59978 19.1458 6.24931 18.4449 5.9759 17.5775C5.70235 16.7098 5.56554 15.7089 5.56554 14.5744C5.56554 12.9591 6.09286 11.5846 7.14731 10.45C6.65336 9.23558 6.69999 7.8742 7.28734 6.36599C7.67442 6.24573 8.24845 6.33598 9.00915 6.63618C9.76998 6.93652 10.327 7.1938 10.6809 7.40711C11.0347 7.62036 11.3182 7.80107 11.5318 7.94762C12.7734 7.60072 14.0546 7.42724 15.3758 7.42724C16.6971 7.42724 17.9786 7.60072 19.2202 7.94762L19.981 7.46735C20.5012 7.14689 21.1156 6.85321 21.8225 6.58625C22.53 6.31943 23.0709 6.24594 23.4448 6.3662C24.0452 7.87448 24.0987 9.23579 23.6046 10.4502C24.659 11.5848 25.1865 12.9597 25.1865 14.5746C25.1865 15.7091 25.0492 16.7132 24.7761 17.5875C24.5026 18.462 24.1491 19.1623 23.7155 19.6898C23.2813 20.2172 22.7407 20.661 22.0934 21.0211C21.4461 21.3815 20.8185 21.6417 20.2113 21.802C19.6039 21.9623 18.92 22.0828 18.1593 22.1629C18.8531 22.7633 19.2001 23.711 19.2001 25.0056V29.2296C19.2001 29.4696 19.2835 29.6699 19.4506 29.83C19.6174 29.9898 19.8808 30.0369 20.2413 29.9699C23.3381 28.9424 25.8641 27.0905 27.8193 24.4143C29.7744 21.7383 30.7522 18.7255 30.7522 15.375C30.7515 12.5861 30.0638 10.0138 28.6896 7.65801Z" fill="white"/>
</svg>
