<?xml version="1.0" encoding="UTF-8" standalone="no"?>
<svg
   xmlns:dc="http://purl.org/dc/elements/1.1/"
   xmlns:cc="http://creativecommons.org/ns#"
   xmlns:rdf="http://www.w3.org/1999/02/22-rdf-syntax-ns#"
   xmlns:svg="http://www.w3.org/2000/svg"
   xmlns="http://www.w3.org/2000/svg"
   xmlns:sodipodi="http://sodipodi.sourceforge.net/DTD/sodipodi-0.dtd"
   xmlns:inkscape="http://www.inkscape.org/namespaces/inkscape"
   width="41"
   height="40"
   viewBox="0 0 41 40"
   id="svg2"
   version="1.1"
   inkscape:version="0.91 r13725"
   sodipodi:docname="github-logo.svg"
   style="fill:none">
  <metadata
     id="metadata10">
    <rdf:RDF>
      <cc:Work
         rdf:about="">
        <dc:format>image/svg+xml</dc:format>
        <dc:type
           rdf:resource="http://purl.org/dc/dcmitype/StillImage" />
        <dc:title></dc:title>
      </cc:Work>
    </rdf:RDF>
  </metadata>
  <defs
     id="defs8" />
  <sodipodi:namedview
     pagecolor="#ffffff"
     bordercolor="#666666"
     borderopacity="1"
     objecttolerance="10"
     gridtolerance="10"
     guidetolerance="10"
     inkscape:pageopacity="0"
     inkscape:pageshadow="2"
     inkscape:window-width="1053"
     inkscape:window-height="710"
     id="namedview6"
     showgrid="false"
     inkscape:zoom="5.9"
     inkscape:cx="11.737522"
     inkscape:cy="21.598312"
     inkscape:window-x="0"
     inkscape:window-y="0"
     inkscape:window-maximized="0"
     inkscape:current-layer="svg2" />
  <path
     inkscape:connector-curvature="0"
     style="fill:#bdbdbd"
     d="M 38.2498,10.210699 C 36.4165,7.06954 33.9298,4.58269 30.7889,2.74958 27.6476,0.91637 24.2182,0 20.4983,0 16.7789,0 13.3484,0.91665 10.2077,2.74958 7.0665404,4.5826 4.5798804,7.06954 2.7465804,10.210699 c -1.833023,3.141 -2.74957997,6.5711 -2.74957997,10.2901 0,4.4673 1.30335997,8.4844 3.91071997,12.0524 2.60709,3.5682 5.9750596,6.0373 10.1036796,7.4075 0.4805,0.0892 0.8363,0.0264 1.0676,-0.1866 0.2314,-0.2134 0.347,-0.4806 0.347,-0.8006 0,-0.0533 -0.0046,-0.5336 -0.0135,-1.4414 -0.0092,-0.9078 -0.0135,-1.6997 -0.0135,-2.3754 l -0.614,0.1062 c -0.3914,0.0717 -0.8853,0.1021 -1.4815,0.0935 -0.596,-0.0083 -1.2146,-0.0708 -1.8552,-0.1869 -0.6408,-0.1151 -1.2369,-0.382 -1.78861,-0.8003 -0.5514396,-0.4182 -0.9429196,-0.9656 -1.1743296,-1.6414 l -0.26693,-0.6143 c -0.17793,-0.4089 -0.45805,-0.8632 -0.84073,-1.3612 -0.38269,-0.4984 -0.76967,-0.8363 -1.16115,-1.0143 l -0.1869,-0.1338 c -0.12454,-0.0889 -0.2401,-0.1961 -0.34697,-0.3206 -0.10677,-0.1244 -0.18671,-0.2489 -0.2401,-0.3737 -0.05348,-0.1248 -0.00916,-0.2272 0.13342,-0.3075 0.14258,-0.0803 0.40026,-0.1193 0.77416,-0.1193 l 0.53368,0.0798 c 0.35595,0.0713 0.79623,0.2844 1.32141,0.6405 0.52489,0.3559 0.95638,0.8185 1.29456,1.3877 0.4095196,0.7298 0.9028896,1.286 1.4815896,1.6687 0.5782,0.3826 1.1611,0.5737 1.7483,0.5737 0.5872,0 1.0943,-0.0445 1.5216,-0.1331 0.4268,-0.089 0.8272,-0.2228 1.2011,-0.4006 0.1602,-1.1929 0.5963,-2.1092 1.3079,-2.7498 -1.0143,-0.1066 -1.9262,-0.2671 -2.7361,-0.4806 -0.8095,-0.2137 -1.6461,-0.5606 -2.509,-1.0415 -0.8635,-0.4803 -1.57978,-1.076699 -2.1490896,-1.7883 -0.5694,-0.7119 -1.0367,-1.6465 -1.40125,-2.8029 -0.36473,-1.157 -0.54714,-2.4916 -0.54714,-4.0042 0,-2.1537 0.7031,-3.9864 2.1090196,-5.4992 -0.6585996,-1.6192 -0.5964196,-3.4344 0.18671,-5.445309 0.51615,-0.16035 1.28145,-0.04001 2.29575,0.36025 1.0144,0.4004495 1.7572,0.7434895 2.229,1.0279095 0.4718,0.2843505 0.8498,0.5252505 1.1346,0.7206495 1.6553,-0.4625 3.3636,-0.6938195 5.1253,-0.6938195 1.7617,0 3.4704,0.2313195 5.1258,0.6938195 l 1.0144,-0.6403295 c 0.6937,-0.42729 1.5128,-0.81886 2.4554,-1.1747995 0.9432,-0.35576 1.6645,-0.45375 2.163,-0.2934 0.8005,2.011029 0.8719,3.826129 0.2131,5.445329 1.4058,1.5128 2.1092,3.346 2.1092,5.4992 0,1.5126 -0.1831,2.8514 -0.5473,4.0172 -0.3646,1.166 -0.8359,2.0997 -1.4141,2.803 -0.5788,0.7032 -1.2997,1.2949 -2.1627,1.7752 -0.8632,0.4805 -1.7,0.8274 -2.5095,1.0411 -0.8098,0.2138 -1.7217,0.3744 -2.736,0.4812 0.9251,0.8005 1.3877,2.0641 1.3877,3.790301 l 0,5.631999 c 0,0.3199 0.1113,0.5871 0.334,0.8005 0.2224,0.2131 0.5737,0.2758 1.0543,0.186501 4.1291,-1.37 7.4971,-3.8392 10.1041,-7.407401 C 39.6962,28.984399 41,24.967299 41,20.5 40.9991,16.7815 40.082,13.3517 38.2498,10.2107 Z"
     id="path4" />
</svg>
