<svg width="63" height="53" viewBox="0 0 63 53" fill="none" xmlns="http://www.w3.org/2000/svg">
<path d="M53.1562 33.5505C52.0923 33.5505 51.068 33.7203 50.1074 34.0303L38.6958 16.351C40.3367 14.6128 41.3438 12.2834 41.3438 9.72477C41.3438 4.36253 36.9278 0 31.5 0C26.0722 0 21.6562 4.36253 21.6562 9.72477C21.6562 12.2834 22.6633 14.6128 24.3042 16.351L12.8926 34.0303C11.932 33.7203 10.9079 33.5505 9.84375 33.5505C4.41591 33.5505 0 37.913 0 43.2752C0 48.6375 4.41591 53 9.84375 53C14.4222 53 18.2805 49.8961 19.3759 45.7064H43.6239C44.7194 49.8961 48.5778 53 53.1562 53C58.5841 53 63 48.6375 63 43.2752C63 37.913 58.5841 33.5505 53.1562 33.5505ZM17.0395 36.649L28.4511 18.9697C29.4118 19.2797 30.4359 19.4495 31.5 19.4495C32.5641 19.4495 33.5882 19.2797 34.5489 18.9697L45.9605 36.649C44.8577 37.817 44.0404 39.2512 43.6241 40.844H19.3759C18.9596 39.2514 18.1423 37.8171 17.0395 36.649ZM31.5 4.86239C34.2139 4.86239 36.4219 7.04365 36.4219 9.72477C36.4219 12.4059 34.2139 14.5872 31.5 14.5872C28.7861 14.5872 26.5781 12.4059 26.5781 9.72477C26.5781 7.04365 28.7861 4.86239 31.5 4.86239ZM9.84375 48.1376C7.12983 48.1376 4.92188 45.9563 4.92188 43.2752C4.92188 40.5941 7.12983 38.4128 9.84375 38.4128C12.5577 38.4128 14.7656 40.5941 14.7656 43.2752C14.7656 45.9563 12.5577 48.1376 9.84375 48.1376ZM53.1562 48.1376C50.4423 48.1376 48.2344 45.9563 48.2344 43.2752C48.2344 40.5941 50.4423 38.4128 53.1562 38.4128C55.8702 38.4128 58.0781 40.5941 58.0781 43.2752C58.0781 45.9563 55.8702 48.1376 53.1562 48.1376Z" fill="url(#paint0_linear)"/>
<defs>
<linearGradient id="paint0_linear" x2="1" gradientUnits="userSpaceOnUse" gradientTransform="translate(0 57.6193) scale(63 -62.2385)">
<stop stop-color="#F2C94C"/>
<stop offset="1" stop-color="#F2994A"/>
</linearGradient>
</defs>
</svg>
