<svg width="300" height="53" viewBox="0 0 300 53" fill="none" xmlns="http://www.w3.org/2000/svg">
<path fill-rule="evenodd" clip-rule="evenodd" d="M5.4294 4.23632C4.01323 5.38924 3.10446 7.04601 2.7041 9.20743H17.3405V8.86152C17.1971 7.56478 16.7679 6.43434 16.0527 5.4684C15.3373 4.50306 14.4432 3.76827 13.3701 3.26362C12.2972 2.75996 11.1879 2.50734 10.0435 2.50734C8.38382 2.50734 6.84598 3.0842 5.4294 4.23632ZM19.6153 11.1743C19.3582 11.4194 19.0574 11.5417 18.7143 11.5417H2.48947C2.48947 13.2707 2.83966 14.8202 3.54104 16.1886C4.24182 17.5577 5.24321 18.6384 6.54562 19.4305C7.84724 20.2236 9.38529 20.6192 11.1598 20.6192C12.5333 20.6192 13.7634 20.3318 14.8513 19.7548C15.9382 19.1787 16.8106 18.4439 17.4693 17.5504C17.784 17.2908 18.0844 17.1613 18.3708 17.1613C18.6564 17.1613 18.914 17.2769 19.1435 17.507C19.372 17.7379 19.4866 17.9975 19.4866 18.2852C19.4866 18.6026 19.3432 18.9052 19.0574 19.193C18.1413 20.3167 16.9898 21.2395 15.6022 21.9595C14.2141 22.6794 12.7478 23.0403 11.2028 23.0403C8.99875 23.0403 7.05343 22.5646 5.36528 21.6136C3.67653 20.6628 2.36069 19.3301 1.41638 17.615C0.472059 15.901 0 13.9192 0 11.6714C0 9.30868 0.464554 7.24055 1.39485 5.4684C2.32435 3.69606 3.56257 2.34184 5.10752 1.40494C6.65287 0.468845 8.29797 0 10.0436 0C11.7606 0 13.3701 0.4038 14.8724 1.2104C16.3747 2.01761 17.5981 3.19897 18.5424 4.75509C19.4866 6.31141 19.9728 8.15576 20.0019 10.2881C20.0019 10.6341 19.8731 10.9298 19.6153 11.1743Z" transform="translate(79.5955 19.7154)" fill="#343434"/>
<path fill-rule="evenodd" clip-rule="evenodd" d="M22.8136 3.19897C22.3125 3.80407 22.0625 4.64012 22.0625 5.70611V10.1584H26.8698C27.1844 10.1584 27.4633 10.274 27.7067 10.5044C27.9496 10.7353 28.0717 11.0229 28.0717 11.3689C28.0717 11.7148 27.9496 12.0032 27.7067 12.2333C27.4633 12.4645 27.1844 12.5793 26.8698 12.5793H22.0625V30.5185C22.0625 30.8935 21.9404 31.2036 21.6977 31.4478C21.4541 31.6931 21.1462 31.8152 20.7749 31.8152C20.4026 31.8152 20.0947 31.6931 19.8517 31.4478C19.6084 31.2036 19.4871 30.8935 19.4871 30.5185V12.5793H16.3537C16.0103 12.5793 15.7239 12.4571 15.4953 12.2117C15.2658 11.9674 15.1519 11.6861 15.1519 11.3689C15.1519 10.9947 15.2658 10.6987 15.4953 10.4827C15.7239 10.2665 16.0103 10.1584 16.3537 10.1584H19.4871V5.70611C19.4871 3.8904 20.0089 2.48566 21.0538 1.49167C22.098 0.49729 23.4929 0 25.2387 0C26.0396 0 26.7841 0.12293 27.4706 0.367597C28.1574 0.612662 28.5009 1.0091 28.5009 1.55632C28.5009 1.90204 28.3861 2.19066 28.1574 2.42081C27.9281 2.65195 27.6707 2.76672 27.3849 2.76672C27.1273 2.76672 26.8123 2.69492 26.4406 2.5505C25.8107 2.37745 25.31 2.29112 24.9383 2.29112C24.0222 2.29112 23.3139 2.59367 22.8136 3.19897ZM7.66178 3.19897C7.16068 3.80407 6.91063 4.64012 6.91063 5.70611V10.1584H11.7179C12.0326 10.1584 12.3115 10.274 12.555 10.5044C12.7977 10.7353 12.9198 11.0229 12.9198 11.3689C12.9198 11.7148 12.7977 12.0032 12.555 12.2333C12.3115 12.4645 12.0326 12.5793 11.7179 12.5793H6.91063V30.5185C6.91063 30.8935 6.78857 31.2036 6.54562 31.4478C6.30229 31.6931 5.99456 31.8152 5.62303 31.8152C5.25072 31.8152 4.9428 31.6931 4.70025 31.4478C4.45671 31.2036 4.33524 30.8935 4.33524 30.5185V12.5793H1.20187C0.858397 12.5793 0.572396 12.4571 0.343477 12.2117C0.113966 11.9674 0 11.6861 0 11.3689C0 10.9947 0.113966 10.6987 0.343477 10.4827C0.572396 10.2665 0.858397 10.1584 1.20187 10.1584H4.33524V5.70611C4.33524 3.8904 4.85707 2.48566 5.90193 1.49167C6.94618 0.49729 8.34123 0 10.0869 0C10.8878 0 11.6322 0.12293 12.319 0.367597C13.0055 0.612662 13.349 1.0091 13.349 1.55632C13.349 1.90204 13.2344 2.19066 13.0055 2.42081C12.7762 2.65195 12.5189 2.76672 12.233 2.76672C11.9755 2.76672 11.6605 2.69492 11.2887 2.5505C10.6591 2.37745 10.1582 2.29112 9.78644 2.29112C8.87037 2.29112 8.16208 2.59367 7.66178 3.19897Z" transform="translate(102.773 10.508)" fill="#343434"/>
<path fill-rule="evenodd" clip-rule="evenodd" d="M5.42965 4.23632C4.01347 5.38924 3.10471 7.04601 2.70435 9.20743H17.3407V8.86152C17.1974 7.56478 16.7682 6.43434 16.0532 5.4684C15.3378 4.50306 14.4434 3.76827 13.3703 3.26362C12.2974 2.75996 11.1882 2.50734 10.0438 2.50734C8.38407 2.50734 6.84622 3.0842 5.42965 4.23632ZM19.6157 11.1743C19.3582 11.4194 19.0578 11.5417 18.7145 11.5417H2.48967C2.48967 13.2707 2.83986 14.8202 3.54123 16.1886C4.24201 17.5577 5.24341 18.6384 6.54582 19.4305C7.84744 20.2236 9.38548 20.6192 11.16 20.6192C12.5335 20.6192 13.7636 20.3318 14.8515 19.7548C15.9386 19.1787 16.811 18.4439 17.4695 17.5504C17.7842 17.2908 18.0846 17.1613 18.371 17.1613C18.6566 17.1613 18.9142 17.2769 19.1437 17.507C19.3722 17.7379 19.4868 17.9975 19.4868 18.2852C19.4868 18.6026 19.3436 18.9052 19.0578 19.193C18.1417 20.3167 16.99 21.2395 15.6024 21.9595C14.2143 22.6794 12.748 23.0403 11.203 23.0403C8.99895 23.0403 7.05363 22.5646 5.36548 21.6136C3.67673 20.6628 2.36089 19.3301 1.41657 17.615C0.472257 15.901 0 13.9192 0 11.6714C0 9.30868 0.464751 7.24055 1.39504 5.4684C2.32455 3.69606 3.56276 2.34184 5.10772 1.40494C6.65307 0.468845 8.29817 0 10.0438 0C11.7608 0 13.3703 0.4038 14.8726 1.2104C16.3751 2.01761 17.5983 3.19897 18.5426 4.75509C19.4868 6.31141 19.973 8.15576 20.0021 10.2881C20.0021 10.6341 19.8733 10.9298 19.6157 11.1743Z" transform="translate(133.763 19.7154)" fill="#343434"/>
<path fill-rule="evenodd" clip-rule="evenodd" d="M14.701 0.453927C15.8598 0.756478 16.7895 1.16704 17.4911 1.68601C18.1919 2.20459 18.5424 2.76672 18.5424 3.37163C18.5424 3.6893 18.4352 3.97673 18.2205 4.23632C18.006 4.4957 17.7411 4.6252 17.4269 4.6252C17.1405 4.6252 16.9041 4.56791 16.7184 4.45254C16.5321 4.33756 16.3248 4.16471 16.096 3.93376C15.7239 3.5594 15.3664 3.2853 15.0229 3.11224C14.5937 2.91114 14.0285 2.74504 13.3277 2.61535C12.6259 2.48546 11.8748 2.42081 11.0742 2.42081C9.50004 2.42081 8.06214 2.82461 6.76032 3.63121C5.45791 4.43841 4.43499 5.53305 3.69154 6.91631C2.94711 8.29957 2.57539 9.82745 2.57539 11.4985C2.57539 13.2275 2.93289 14.7836 3.64848 16.1671C4.36329 17.5504 5.35817 18.6382 6.63154 19.4305C7.90452 20.2236 9.35724 20.6192 10.9883 20.6192C12.0183 20.6192 12.8404 20.5329 13.4565 20.3601C14.0713 20.187 14.6797 19.9427 15.2807 19.6253C15.4804 19.5105 15.8239 19.2511 16.3105 18.8471C16.5393 18.646 16.7397 18.4944 16.9114 18.3932C17.0834 18.2925 17.2691 18.2418 17.4695 18.2418C17.813 18.2418 18.0846 18.3498 18.2851 18.566C18.485 18.7821 18.5857 19.0633 18.5857 19.409C18.5857 19.8994 18.2422 20.4247 17.5553 20.9868C16.8687 21.5488 15.9244 22.0317 14.7225 22.435C13.5206 22.838 12.19 23.0401 10.7306 23.0401C8.64145 23.0401 6.78185 22.5432 5.15078 21.5488C3.5197 20.5546 2.25344 19.1787 1.35199 17.4205C0.450925 15.6631 0 13.6888 0 11.4985C0 9.3952 0.457641 7.47149 1.37351 5.72759C2.28899 3.98449 3.57679 2.59367 5.2365 1.55632C6.89582 0.518574 8.79926 0 10.9453 0C12.2899 0 13.5422 0.151375 14.701 0.453927Z" transform="translate(157.628 19.7155)" fill="#343434"/>
<path fill-rule="evenodd" clip-rule="evenodd" d="M6.95329 8.5158V22.9969C6.95329 24.0925 7.15357 24.8341 7.55453 25.2234C7.95489 25.6122 8.48383 25.8066 9.14254 25.8066C9.31398 25.8066 9.52868 25.771 9.78644 25.6986C10.044 25.6272 10.2439 25.5906 10.3873 25.5906C10.6446 25.5906 10.8662 25.6986 11.0525 25.9148C11.2384 26.1308 11.3318 26.3836 11.3318 26.6713C11.3318 27.0751 11.1023 27.4136 10.6446 27.6871C10.1868 27.9612 9.64265 28.0977 9.01376 28.0977C8.24109 28.0977 7.55453 28.0263 6.95329 27.8817C6.35265 27.7379 5.77295 27.3056 5.21517 26.5847C4.65719 25.8649 4.3781 24.7119 4.3781 23.1266V8.5158H1.24493C0.901455 8.5158 0.607751 8.40102 0.365006 8.16988C0.121471 7.93974 0 7.65131 0 7.30539C0 6.95988 0.121471 6.67184 0.365006 6.4409C0.607751 6.21076 0.901455 6.09539 1.24493 6.09539H4.3781V1.29693C4.3781 0.922573 4.49957 0.612861 4.74311 0.367597C4.98585 0.123129 5.29358 0 5.6657 0C6.03722 0 6.34534 0.123129 6.58868 0.367597C6.83162 0.612861 6.95329 0.922573 6.95329 1.29693V6.09539H11.2455C11.5603 6.09539 11.839 6.22468 12.0829 6.48427C12.3253 6.74365 12.4474 7.03188 12.4474 7.34876C12.4474 7.69467 12.3328 7.97554 12.1041 8.19156C11.875 8.40779 11.5892 8.5158 11.2455 8.5158H6.95329Z" transform="translate(178.489 14.2256)" fill="#343434"/>
<path fill-rule="evenodd" clip-rule="evenodd" d="M7.66178 3.19897C7.16068 3.80407 6.91043 4.64012 6.91043 5.70611V10.1584H11.7177C12.0326 10.1584 12.3115 10.274 12.5546 10.5044C12.7975 10.7353 12.9196 11.0229 12.9196 11.3689C12.9196 11.7148 12.7975 12.0032 12.5546 12.2333C12.3115 12.4645 12.0326 12.5793 11.7177 12.5793H6.91043V30.5185C6.91043 30.8935 6.78837 31.2036 6.54562 31.4478C6.30209 31.6931 5.99456 31.8152 5.62284 31.8152C5.25072 31.8152 4.9426 31.6931 4.70025 31.4478C4.45632 31.2036 4.33524 30.8935 4.33524 30.5185V12.5793H1.20187C0.858397 12.5793 0.572199 12.4571 0.34328 12.2117C0.113966 11.9674 0 11.6861 0 11.3689C0 10.9947 0.113966 10.6987 0.34328 10.4827C0.572199 10.2665 0.858397 10.1584 1.20187 10.1584H4.33524V5.70611C4.33524 3.8904 4.85688 2.48566 5.90173 1.49167C6.94599 0.49729 8.34103 0 10.0867 0C10.8876 0 11.6322 0.12293 12.319 0.367597C13.0055 0.612662 13.349 1.0091 13.349 1.55632C13.349 1.90204 13.2344 2.19066 13.0055 2.42081C12.776 2.65195 12.5189 2.76672 12.2329 2.76672C11.9755 2.76672 11.6603 2.69492 11.2885 2.5505C10.6591 2.37745 10.158 2.29112 9.78624 2.29112C8.87017 2.29112 8.16188 2.59367 7.66178 3.19897Z" transform="translate(192.481 10.508)" fill="#343434"/>
<path fill-rule="evenodd" clip-rule="evenodd" d="M17.3194 0.367597C17.5622 0.612662 17.6844 0.922971 17.6844 1.29693V13.4869C17.6844 16.3115 16.8968 18.4797 15.3238 19.9927C13.7496 21.5056 11.5745 22.2621 8.79906 22.2621C6.05223 22.2621 3.89893 21.5056 2.33956 19.9927C0.779391 18.4797 0 16.3115 0 13.4869V1.29693C0 0.922971 0.121669 0.612662 0.365006 0.367597C0.607949 0.123129 0.915479 0 1.28779 0C1.65932 0 1.96724 0.123129 2.21078 0.367597C2.45352 0.612662 2.57539 0.922971 2.57539 1.29693V13.4869C2.57539 15.5618 3.11875 17.1398 4.20646 18.2205C5.29378 19.3012 6.82491 19.8415 8.79906 19.8415C10.8019 19.8415 12.3545 19.3012 13.4563 18.2205C14.5578 17.1398 15.1091 15.5618 15.1091 13.4869V1.29693C15.1091 0.922971 15.2303 0.612662 15.4737 0.367597C15.7166 0.123129 16.0243 0 16.3967 0C16.768 0 17.0761 0.123129 17.3194 0.367597Z" transform="translate(209.779 20.3638)" fill="#343434"/>
<path fill-rule="evenodd" clip-rule="evenodd" d="M2.21038 31.6205C1.96704 31.8658 1.65932 31.9881 1.2876 31.9881C0.915281 31.9881 0.607554 31.8658 0.364809 31.6205C0.121274 31.3762 0 31.0661 0 30.6912V1.29673C0 0.922374 0.121274 0.612662 0.364809 0.367398C0.607554 0.12293 0.915281 0 1.2876 0C1.65932 0 1.96704 0.12293 2.21038 0.367398C2.45313 0.612662 2.57539 0.922374 2.57539 1.29673V30.6912C2.57539 31.0661 2.45313 31.3762 2.21038 31.6205Z" transform="translate(234.458 10.3353)" fill="#343434"/>
<path fill-rule="evenodd" clip-rule="evenodd" d="M3.94871 29.6755C2.54635 28.999 1.40156 28.0545 0.51492 26.8443C0.171442 26.3254 0 25.8215 0 25.3314C0 24.6397 0.271582 24.0418 0.815339 23.5373C1.3587 23.0335 1.91668 22.7807 2.48947 22.7807C3.23311 22.7807 4.03462 23.2131 4.89302 24.0776C5.43619 24.5962 5.99416 24.9638 6.56715 25.18C7.13915 25.396 7.78305 25.5042 8.49864 25.5042C9.32821 25.5042 10.1222 25.288 10.8811 24.8558C11.6389 24.4235 12.2469 23.8399 12.7051 23.1049C13.1622 22.3701 13.3919 21.5997 13.3919 20.7925V2.63703C13.3919 1.88791 13.6634 1.26113 14.2074 0.756677C14.7506 0.252822 15.3802 0 16.0958 0C16.8968 0 17.5405 0.245264 18.0273 0.734995C18.5136 1.22552 18.7571 1.85887 18.7571 2.63703V20.7925C18.7571 22.5217 18.2989 24.15 17.3836 25.6769C16.4676 27.2048 15.2226 28.4219 13.6492 29.33C12.0754 30.2374 10.3582 30.6914 8.49864 30.6914C6.86737 30.6914 5.35046 30.3522 3.94871 29.6755Z" transform="translate(254.117 12.0642)" fill="#F8AF3D"/>
<path fill-rule="evenodd" clip-rule="evenodd" d="M5.6657 30.3454C4.06287 29.8269 2.56058 28.9483 1.15901 27.7088C0.386338 27.017 0 26.2537 0 25.4177C0 24.7549 0.242943 24.1715 0.729618 23.6668C1.2159 23.1632 1.80271 22.9106 2.48967 22.9106C3.03283 22.9106 3.5197 23.0832 3.9489 23.4291C5.0933 24.38 6.20906 25.0718 7.29697 25.504C8.38389 25.9363 9.67148 26.1525 11.1598 26.1525C12.7624 26.1525 14.143 25.7925 15.3018 25.0718C16.4608 24.3519 17.0403 23.458 17.0403 22.3918C17.0403 21.0951 16.4676 20.079 15.3234 19.3442C14.1786 18.6094 12.3616 18.0546 9.87216 17.6799C3.60543 16.7579 0.472257 13.8187 0.472257 8.86171C0.472257 7.0462 0.944316 5.4682 1.88843 4.1283C2.83295 2.78801 4.12074 1.76578 5.75162 1.05903C7.38249 0.353275 9.19962 0 11.2028 0C13.0055 0 14.701 0.274106 16.289 0.821325C17.8772 1.36914 19.2006 2.09001 20.2594 2.98255C21.0892 3.64593 21.5042 4.40917 21.5042 5.27366C21.5042 5.93705 21.2606 6.52067 20.7744 7.02452C20.2877 7.52897 19.7157 7.7808 19.0576 7.7808C18.6284 7.7808 18.2422 7.65111 17.8987 7.39192C17.1543 6.78662 16.1176 6.23224 14.7869 5.72759C13.4563 5.22393 12.2613 4.97111 11.2028 4.97111C9.3999 4.97111 8.00506 5.31026 7.01808 5.98698C6.0307 6.66448 5.53692 7.55066 5.53692 8.64549C5.53692 9.88494 6.04473 10.8218 7.06054 11.4552C8.07616 12.0895 9.67148 12.6083 11.8467 13.0115C14.3073 13.4437 16.2742 13.9987 17.7486 14.6756C19.2219 15.3529 20.3307 16.2749 21.0752 17.4424C21.8186 18.6094 22.1909 20.1588 22.1909 22.0892C22.1909 23.9047 21.6827 25.4973 20.6671 26.8656C19.6511 28.2347 18.2991 29.2864 16.611 30.0212C14.9222 30.756 13.1055 31.1236 11.1598 31.1236C9.09968 31.1236 7.26793 30.864 5.6657 30.3454Z" transform="translate(277.809 11.632)" fill="#F8AF3D"/>
<path fill-rule="evenodd" clip-rule="evenodd" d="M11.5623 11.8982C11.0051 10.5762 10.2127 9.40237 9.20654 8.40878L9.2095 8.4056L1.05354 0.526332L0.896912 0.375355C0.653377 0.168084 0.357303 0.0399821 0.0408855 0.00457507L0 0L0.0199489 0.0362027C0.404312 0.734597 0.764775 1.46024 1.09067 2.19285C1.1284 2.27858 1.16632 2.36531 1.20326 2.45104C1.63976 3.46194 2.0186 4.50286 2.32889 5.54518C3.11381 8.17108 3.51161 10.9048 3.51161 13.6705C3.51161 14.0208 3.50608 14.347 3.49442 14.6675L3.49423 14.6768L9.84964 21.0758C10.0395 21.2812 10.3025 21.3946 10.5771 21.3946C10.6334 21.3946 10.6901 21.3898 10.7468 21.3801C11.0612 21.325 11.331 21.1205 11.4677 20.8341C11.4772 20.8172 11.4857 20.7979 11.4938 20.7748C12.1189 19.3563 12.4359 17.8366 12.4359 16.2582C12.4359 14.7407 12.142 13.2737 11.5623 11.8982Z" transform="translate(52.439 11.1339)" fill="#F8AF3D"/>
<path fill-rule="evenodd" clip-rule="evenodd" d="M26.6913 1.33652L26.6879 1.33254L26.683 1.33075C24.4228 0.44776 22.0384 0 19.5964 0C13.7952 0 8.32602 2.56701 4.59063 7.04282L4.62322 7.07067C6.61515 4.75927 9.50044 3.43349 12.5388 3.43349C15.338 3.43349 17.9695 4.53131 19.9487 6.52485C21.9282 8.51818 23.0181 11.1687 23.0181 13.988C23.0181 16.8068 21.9282 19.457 19.9487 21.4503C17.9695 23.4439 15.338 24.5417 12.5388 24.5417C9.73943 24.5417 7.10775 23.4439 5.12826 21.4503C3.14897 19.457 2.05889 16.8068 2.05889 13.988C2.05889 11.6917 2.77843 9.50819 4.1399 7.67359L4.10593 7.64773C2.80095 9.3409 1.78553 11.2211 1.08771 13.2361C0.365994 15.3205 0 17.507 0 19.7349C0 23.6046 1.11299 27.3532 3.21889 30.5748L3.22166 30.5792L3.2262 30.5818C6.05362 32.1934 9.27389 33.0453 12.5388 33.0453C15.0933 33.0453 17.5713 32.5415 19.9043 31.5475C22.1575 30.5877 24.1813 29.2136 25.9192 27.4632C27.6571 25.7129 29.0216 23.6748 29.975 21.4056C30.9617 19.0562 31.4621 16.5604 31.4621 13.988C31.4621 9.31842 29.7678 4.82551 26.6913 1.33652Z" transform="translate(8.40063 5.06953)" fill="#F8AF3D"/>
<mask id="mask0" mask-type="alpha" maskUnits="userSpaceOnUse" x="0" y="0" width="56" height="53">
<path fill-rule="evenodd" clip-rule="evenodd" d="M0 0H55.9933V53H0V0Z" fill="white"/>
</mask>
<g mask="url(#mask0)">
<path fill-rule="evenodd" clip-rule="evenodd" d="M54.8088 16.6668C54.4979 15.6229 54.1187 14.5804 53.6814 13.5679C53.6443 13.4821 53.6066 13.3954 53.5688 13.3095C53.2421 12.5757 52.8813 11.8488 52.4963 11.1494L52.491 11.1397L52.4801 11.1385C52.4181 11.1313 52.3591 11.128 52.299 11.128C51.6569 11.128 51.0802 11.5079 50.823 12.0979L50.8214 12.0971L50.8127 12.1178C50.645 12.5102 50.5481 12.919 50.5014 13.1153C49.5322 17.1989 48.9496 21.1436 48.9438 21.183C48.9363 21.2345 48.1656 26.3988 46.6402 30.4063C46.5361 30.68 46.4249 30.9587 46.4238 30.9615C45.765 32.6091 45.4344 33.4362 44.7937 34.5436C43.6112 36.589 40.178 41.5659 33.8579 43.5966C31.5424 44.341 29.3927 44.4971 27.9971 44.4971C21.3991 44.4971 15.2898 41.179 11.6551 35.6211C9.55377 32.4062 8.44314 28.6658 8.44314 24.8044C8.44314 22.5816 8.80835 20.3998 9.52868 18.32C10.2249 16.3093 11.2382 14.4332 12.5406 12.7432C12.685 12.5478 12.8447 12.3483 13.0146 12.151C13.0168 12.149 13.0184 12.1466 13.0201 12.1444L13.0028 12.1319L13.0239 12.14C16.751 7.67398 22.2085 5.11254 27.9971 5.11254C30.4338 5.11254 32.8129 5.55931 35.0685 6.44031L35.1504 6.47233L35.092 6.40609C33.3329 4.41196 31.225 2.83833 28.8268 1.72958C26.345 0.582029 23.6914 0 20.9395 0C15.4083 0 10.1696 2.42797 6.56636 6.6613C6.33823 6.93322 6.10655 7.22244 5.85768 7.54548C3.99591 9.96351 2.54714 12.6481 1.55187 15.525C0.52203 18.501 0 21.6232 0 24.8044C0 28.6107 0.740284 32.303 2.20031 35.7792C3.61036 39.1367 5.62916 42.1521 8.2004 44.7416C10.7716 47.3311 13.7658 49.364 17.0996 50.7843C20.5514 52.2547 24.2176 53.0002 27.9971 53.0002C30.4589 53.0002 32.9015 52.6782 35.2571 52.0428C37.5421 51.4266 39.7458 50.5161 41.8071 49.3366C45.8685 47.0126 49.3207 43.6706 51.7898 39.6724C52.1612 39.0673 52.4861 38.4966 52.7827 37.9273C54.7535 34.1613 55.8278 30.0819 55.9763 25.803C55.9878 25.4819 55.9933 25.1555 55.9933 24.8044C55.9933 22.0347 55.5947 19.2969 54.8088 16.6668Z" transform="translate(0 -0.000137329)" fill="#FBC24A"/>
</g>
</svg>
