<svg width="60" height="60" viewBox="0 0 60 60" fill="none" xmlns="http://www.w3.org/2000/svg">
<path d="M30.0001 45.2344C34.5233 45.2344 38.2032 41.5545 38.2032 37.0313C38.2032 32.5081 34.5233 28.8281 30.0001 28.8281C25.4769 28.8281 21.7969 32.5081 21.7969 37.0313C21.7969 41.5545 25.4769 45.2344 30.0001 45.2344ZM30.0001 33.5156C31.9386 33.5156 33.5157 35.0927 33.5157 37.0313C33.5157 38.9698 31.9386 40.5469 30.0001 40.5469C28.0615 40.5469 26.4844 38.9698 26.4844 37.0313C26.4844 35.0927 28.0615 33.5156 30.0001 33.5156ZM59.6346 56.3997L48.7267 39.2257C49.1383 21.6779 40.235 6.86253 31.3748 0.445576C30.5546 -0.148564 29.4454 -0.148447 28.6251 0.445459C20.0499 6.65944 10.8624 21.2661 11.2755 39.222L0.365371 56.3997C-0.0930658 57.1214 -0.122128 58.0356 0.289668 58.7849C0.701582 59.5343 1.48885 60 2.34385 60C5.23169 60 54.6999 60 57.6563 60C58.5113 60 59.2985 59.5343 59.7103 58.785C60.1221 58.0356 60.0931 57.1214 59.6346 56.3997ZM30.0029 5.38807C38.6432 13.1178 44.5838 25.5311 44.0143 39.9281C43.8118 45.1347 42.7974 50.3211 41.2308 55.3124H18.7692C17.1971 50.3038 16.1757 45.0659 15.9816 39.8406C15.9811 39.8236 15.9799 39.8066 15.9793 39.7896C15.4564 25.4765 21.3595 13.1367 30.0029 5.38807ZM6.609 55.3125L11.9686 46.8741C12.4127 49.7064 13.0809 52.6138 13.8691 55.3125H6.609ZM46.131 55.3125C46.9431 52.5328 47.5934 49.6684 48.0316 46.8741L53.3911 55.3125H46.131Z" fill="url(#paint0_linear)"/>
<defs>
<linearGradient id="paint0_linear" x2="1" gradientUnits="userSpaceOnUse" gradientTransform="translate(-1.90623e-05 60.0001) scale(60 -60.0001)">
<stop stop-color="#F2C94C"/>
<stop offset="1" stop-color="#F2994A"/>
</linearGradient>
</defs>
</svg>
